<svg id="Layer_1" data-name="Layer 1" xmlns="http://www.w3.org/2000/svg" viewBox="0 0 1133.03 279"><defs><style>.cls-1{fill:#1a0089;}</style></defs><path class="cls-1" d="M682.88,549.8A44.19,44.19,0,0,0,660,524.06a47,47,0,0,0-20-4.34c-11.38,0-22.19,3.71-32.3,7.53l-1.49.56-.13-1.6c-.09-1.31-.16-2.62-.2-3.91a73.45,73.45,0,0,1,.89-13.4l.19-1.18,1.19.19a69.89,69.89,0,0,0,9.14.87h1.22c14.45,0,31.27-6,36.27-19.33.47-1.27,4.39-12.67-2.77-21.81a21.15,21.15,0,0,0-15.57-7.94c-.54,0-1.09,0-1.64,0a28.51,28.51,0,0,0-19.62,8,68.41,68.41,0,0,0-16,24.9l-.42,1.1-1.12-.39A84.69,84.69,0,0,1,579,483.76l-1.16-.79,1-1c12.43-13.3,25.51-29.54,23.33-53.91-1.26-13.94-10.75-26.82-24.16-32.81A35.6,35.6,0,0,0,563.46,392a32.1,32.1,0,0,0-19.33,6.52,31.57,31.57,0,0,0-11.49,15.78,41.16,41.16,0,0,0-6.33-9.2A34.08,34.08,0,0,0,501,393.5l-1,0c-9.36.27-18.19,4.56-24.86,12.09a44.2,44.2,0,0,0-10.87,32.64c1.86,20,15.31,32.59,28.92,43.71l1.23,1-1.31.91c-1.08.76-2.2,1.48-3.31,2.14a70.66,70.66,0,0,1-12,5.94l-1.12.42-.43-1.12a68.8,68.8,0,0,0-3.82-8.36c-6.24-11.5-18.49-23.11-31.8-23.11a23.47,23.47,0,0,0-3.66.3c-1.34.24-13.21,2.62-17.5,13.32a21.07,21.07,0,0,0,.89,17.45,28.56,28.56,0,0,0,17.54,14.41,67.73,67.73,0,0,0,17.9,2.4,71.28,71.28,0,0,0,11.68-1l1.16-.2.22,1.17a84.72,84.72,0,0,1,1.05,20.9l-.11,1.4-1.37-.32c-7.51-1.74-16.41-3.52-25.44-3.52A55.37,55.37,0,0,0,410,536.4c-11.45,8-17.85,22.68-16.34,37.32,1.34,12.77,8.55,22.85,19.8,27.68a32.59,32.59,0,0,0,12.9,2.76,30.54,30.54,0,0,0,5.37-.48,40.73,40.73,0,0,0-3.94,8.71c-3.19,10-2.07,20.15,3.14,28.59,4.9,8,13,13.45,22.89,15.47a44.18,44.18,0,0,0,33.7-6.91c17.78-12.56,21.16-33.23,23.4-46.9l.27-1.58,1.43.69c1.19.57,2.35,1.17,3.5,1.78A71.63,71.63,0,0,1,527.34,611l.93.76-.77.93a68.58,68.58,0,0,0-5.33,7.48c-7.55,12.31-11.39,30.75-2,42.13.73.88,7.46,8.7,17.49,8.7a20.19,20.19,0,0,0,2.78-.2,21.06,21.06,0,0,0,14.65-9.52,28.49,28.49,0,0,0,3.71-22.4,68.46,68.46,0,0,0-13.55-26.3l-.75-.92.9-.77A84.53,84.53,0,0,1,563,599.54l1.26-.62.41,1.35c5.29,17.41,12.8,36.85,35,47.16a36.92,36.92,0,0,0,7.71,2.56,40,40,0,0,0,8.28.88,42.08,42.08,0,0,0,24.5-8c10.37-7.52,15.51-18.82,14.08-31a31.83,31.83,0,0,0-6.9-16.64c.53,0,1.07,0,1.61,0a40.8,40.8,0,0,0,8.78-.94,34,34,0,0,0,23.18-17C685.36,569.13,686.05,559.34,682.88,549.8Zm-72.26-54.7a57,57,0,0,1,12.7-19.2,17.26,17.26,0,0,1,11.56-4.69c.29,0,.57,0,.85,0a9.36,9.36,0,0,1,7.18,3.54c2.83,3.58,1.66,8.66,1.14,10.39v0l-.08.2c-2.9,7.77-14.91,11.83-25.28,11.83l-1.08,0a56.31,56.31,0,0,1-6-.48l-1.54-.2Zm-146.72.44a59.34,59.34,0,0,1-8.16.57,56.45,56.45,0,0,1-14.83-2,17.13,17.13,0,0,1-10.23-8.4,9.35,9.35,0,0,1-.55-8c1.91-4.77,8.22-6.22,8.71-6.22h0a10.23,10.23,0,0,1,1.77-.15c8,0,17.13,8.79,21.62,17.07,1,1.78,1.83,3.62,2.6,5.47l.59,1.43Zm130.89,9,1,.34-.17,1a83.2,83.2,0,0,0-1.23,16.74c.08,2.79.28,5.62.63,8.42l.12,1L592,533a64.54,64.54,0,0,1-19.66,3.36,37.56,37.56,0,0,1-12.24-1.86c-4.48-1.55-7.6-4.46-9-8.4-1.58-4.36-.84-9.54,2-14.24,4.3-7.09,10.25-13.69,16-19.76l.71-.76.85.6A96.77,96.77,0,0,0,594.79,504.51Zm-52.18-81.95a21.27,21.27,0,0,1,20.81-19,24.86,24.86,0,0,1,9.88,2.21c9.52,4.24,16.49,13.61,17.35,23.29,1.77,19.79-9.43,33.49-21.06,45.83l-.81.86-.88-.81a98.07,98.07,0,0,1-8.55-9C550.13,454.9,541,436.61,542.61,422.56ZM475.78,437.2a32.68,32.68,0,0,1,8-23.92,22.86,22.86,0,0,1,16.52-8.22h.63a22.72,22.72,0,0,1,16.82,7.8,30.32,30.32,0,0,1,7.63,23.4c-1.55,12.61-9.29,26.6-21.21,38.38l-.77.75-.83-.68C490.17,464.62,477.34,454.18,475.78,437.2Zm4.94,66a83.73,83.73,0,0,0,15.12-7.31c2.39-1.46,4.73-3.06,7-4.74l.77-.59,2.48,2.16c9.27,8.32,15.56,18.12,17.25,26.88.88,4.65-.07,8.81-2.78,12C517.64,535,513,537,507.7,537h-.49c-8.26-.18-17-2-25.13-4l-1-.25.09-1A95.86,95.86,0,0,0,480,504.54l-.19-1ZM435.08,590.7a22,22,0,0,1-8.66,1.89,21.25,21.25,0,0,1-8.37-1.8c-10-4.29-12.34-13.28-12.86-18.27-1.08-10.36,3.54-21.09,11.5-26.68a43.82,43.82,0,0,1,26.44-8.13c8,0,16.18,1.66,23.76,3.45l1.15.27-.25,1.16a93.55,93.55,0,0,1-3.51,11.92C459.33,568,448.07,585.09,435.08,590.7ZM500,598.13c-2.54,15.81-5.17,32.14-19.09,42a32.69,32.69,0,0,1-18.47,5.64,31.49,31.49,0,0,1-6.26-.62,23,23,0,0,1-15.38-10.22,22.66,22.66,0,0,1-2-19,30.2,30.2,0,0,1,16.45-18.29,55.82,55.82,0,0,1,21.59-3.94,85.21,85.21,0,0,1,22.25,3.12l1,.28Zm47.64,43.7a17.15,17.15,0,0,1-2.16,13.06,9.4,9.4,0,0,1-6.66,4.47,7.94,7.94,0,0,1-1.08.07c-4.42,0-8-3.7-8.67-4.49-5.46-6.63-2.55-19.75,3-28.74a55.47,55.47,0,0,1,3.43-5l.94-1.23,1,1.22A57.12,57.12,0,0,1,547.63,641.83Zm12.43-53.66a96.64,96.64,0,0,0-22.93,14.64l-.78.67-.78-.67a83,83,0,0,0-13.88-9.42c-2.44-1.33-5-2.56-7.61-3.66l-.9-.39.19-1c.15-.77.3-1.53.46-2.27,2.57-12.19,7.9-22.53,14.64-28.37a14.49,14.49,0,0,1,9.49-3.82,13.65,13.65,0,0,1,2.3.2c4.57.83,8.7,4,11.34,8.85,4,7.26,6.72,15.7,9.1,23.76l.29,1Zm11.75-4.6-.34-1.16c-2.43-8.17-5.29-16.86-9.75-25-4.32-7.87-11.4-13.22-19.42-14.66a24.6,24.6,0,0,0-4.35-.39,25.84,25.84,0,0,0-17,6.65c-8.62,7.46-15.33,20.12-18.39,34.75l-.41,1.85-1.2-.32a94.66,94.66,0,0,0-24.05-3.25,72.46,72.46,0,0,0-15.9,1.68,94.36,94.36,0,0,0,14.16-25.23A109.89,109.89,0,0,0,479,545.38l.27-1.19,1.17.28c8.32,2,17.3,3.85,26.52,4.06h.71c8.69,0,16.6-3.46,21.69-9.5a25.43,25.43,0,0,0,5.27-21.65c-2.15-11.19-9.76-23.32-20.83-33.25-.13-.11-.26-.22-.52-.47l-.94-.84.88-.89C524,471.07,531.5,458.8,535,446.63a94.19,94.19,0,0,0,15.47,26.72,104.91,104.91,0,0,0,9.43,9.91l.89.83L560,485c-5.56,5.87-11.9,12.95-16.76,20.93-4.65,7.69-5.75,16.49-3,24.13a25.5,25.5,0,0,0,16.12,15.42,49,49,0,0,0,16,2.45A75.9,75.9,0,0,0,595.6,544l.54-.18,1.24-.48.35,1.28c3.84,14,10.25,26.19,18.46,35.2a94,94,0,0,0-29.92.18,108.89,108.89,0,0,0-13.3,3.22Zm61.57,50a30.53,30.53,0,0,1-17.76,5.73A26.61,26.61,0,0,1,604.53,637c-18-8.36-24.27-24.91-29.15-41.14l-.35-1.13,1.14-.36a91.3,91.3,0,0,1,12.06-2.92A81.4,81.4,0,0,1,602,590.26c13.35,0,25.08,3,32.18,8.33a20.49,20.49,0,0,1,8.58,14.69C644.05,624.06,637.44,630.61,633.38,633.56Zm37.37-61.68a22.58,22.58,0,0,1-15.48,11.21,29.38,29.38,0,0,1-6.24.67A30.14,30.14,0,0,1,631.21,578c-10.16-7.65-18.4-21.34-22.63-37.56l-.27-1,1-.38c9.5-3.62,20.28-7.72,30.71-7.72a35.5,35.5,0,0,1,15.18,3.27,32.79,32.79,0,0,1,16.72,18.89C673.44,558.06,674.48,565,670.75,571.88Z" transform="translate(-393.48 -392)"/><path class="cls-1" d="M944.68,606.91l.11.31v-.36Z" transform="translate(-393.48 -392)"/><path class="cls-1" d="M944.79,606.86l-.11,0,.11.31v2.12H899.18v-3.05h1a12.6,12.6,0,0,0,8.82-4.15,7.54,7.54,0,0,0,2.29-5.61l-12-122.66L841.17,610.72l-66.93-129L763.93,596.29c-.21,1.83.78,4.22,2.6,6.22a10.5,10.5,0,0,0,7.5,3.78h1v3.05H742.32v-3.05h1c6.17,0,9.67-6.09,10.1-10.21l12.36-129.82L763,461.08c-1.9-3.3-6.06-5.9-9.48-5.9h-2.27v-3.54h35.3L847.19,568.8l50.87-117.16h34.6v3.79h-2c-4.51.17-6.89.81-8.16,2.25-1.1,1.26-1.49,3.26-1.2,6.29l12.37,132.38c.52,4.51,2.66,9.94,10.11,9.94h1Z" transform="translate(-393.48 -392)"/><path class="cls-1" d="M944.68,606.91l.11.31v-.36Z" transform="translate(-393.48 -392)"/><path class="cls-1" d="M1098.53,605.11l-.31-.1c-1.75-.66-3-1.14-4.06-3.8l-64.09-148.93-.27-.64H999.66v2.45l.88.1a11.55,11.55,0,0,1,8.6,6.31l2.54,6L953.72,600a12.16,12.16,0,0,1-7.3,6.35l-1.63.51v.36l.72,2.12H976v-2.89l-3.59-.64a4.53,4.53,0,0,1-3.55-2.29c-2.54-4.68.5-16.74,9-35.85l5.92-13.26H1049l6.66,15.69c7.57,18,10.21,28.25,8.33,32.13-.82,1.71-2.54,2.2-4.7,2.8l-4.43,1.26v3.05h48.31v-3.07ZM987.92,544.92l29.3-65.4,27.68,65.4Z" transform="translate(-393.48 -392)"/><path class="cls-1" d="M1227.12,451.64v3.05h-1c-5.27,0-10.1,5.18-10.1,10.85v92.29c0,26.15-17.34,53.18-50.48,54.23-1.73.06-3.42.1-5,.1-23.18,0-37.18-6.84-49-23.54l-.27-.35,4.7-24.79H1119l.21.78c3.86,15.14,14.83,40.54,45,40.54,23.49,0,28.42-25.67,28.42-47.22v-92c0-6.69-3.86-10.85-10.11-10.85h-1v-3.05Z" transform="translate(-393.48 -392)"/><path class="cls-1" d="M1359.43,573.13l-5.77,36.21h-112.5V606.1l1-.06c6.47-.35,7.15-4.95,7-9.4,0-.27,0-.52,0-.7V462.32c0-.19,0-.43,0-.7.06-1.32.16-3.34-1.18-4.79-1.09-1.17-3-1.81-5.77-1.89l-1,0v-3.28h110l5.77,36.21h-3.63l-.27-.62c-9.9-23.69-14.35-25.12-79.22-25.12-.62,0-1.44,2-1.44,4.17V523.4h57.75l6.68-12.38h2.38v33.49H1336l-5.44-12.37H1272.4v62.31c0,2.33.82,4.41,1.44,4.41,65.49,0,71.84-3.46,81.72-25.13l.26-.6Z" transform="translate(-393.48 -392)"/><path class="cls-1" d="M1526.52,451.64v3.3h-1c-5.2,0-10.11,5.83-10.11,10.35V609.34H1505L1391.19,477v119.2c0,4,4.51,10.11,10.08,10.11h1v3.05h-32.5v-3.05h1c6.18,0,10.12-6,10.12-10.11V464.94l-5-5.65a11.28,11.28,0,0,0-7.63-3.61h-1.77v-4h34.15l104.39,119.28V465.29c0-4.89-4.14-10.35-10.1-10.35h-1v-3.3Z" transform="translate(-393.48 -392)"/></svg>