<svg id="Layer_1" data-name="Layer 1" xmlns="http://www.w3.org/2000/svg" viewBox="0 0 589.52 564.52"><defs><style>.cls-1{fill:#1a0089;}</style></defs><path class="cls-1" d="M1250.79,577c-7.6-22.74-24.87-42.2-46.21-52.06a94.91,94.91,0,0,0-40.52-8.8c-23,0-44.92,7.52-65.35,15.25l-3,1.13-.25-3.24c-.2-2.65-.33-5.31-.41-7.92a146.76,146.76,0,0,1,1.8-27.11l.38-2.39,2.41.38a139.74,139.74,0,0,0,18.5,1.77c.81,0,1.63,0,2.46,0,29.25,0,63.28-12.1,73.38-39.11,1-2.57,8.9-25.65-5.61-44.14-7.51-9.57-18.7-15.27-31.49-16.06-1.1-.06-2.2-.11-3.32-.11a57.69,57.69,0,0,0-39.69,16.25,138.64,138.64,0,0,0-32.37,50.38l-.84,2.23-2.26-.79a171.28,171.28,0,0,1-37.71-19.31l-2.34-1.6,1.94-2.07c25.16-26.92,51.62-59.77,47.21-109.09-2.55-28.19-21.75-54.26-48.89-66.38a71.87,71.87,0,0,0-29.41-6.52,64.89,64.89,0,0,0-39.11,13.2,63.79,63.79,0,0,0-23.25,31.93A83.55,83.55,0,0,0,934,284.24c-13.76-15.12-32-23.46-51.2-23.46l-2.06,0c-19,.55-36.8,9.24-50.3,24.47-15.89,18-24.12,42.65-22,66,3.76,40.55,31,65.94,58.52,88.44l2.49,2-2.65,1.85c-2.2,1.53-4.45,3-6.7,4.33a143.52,143.52,0,0,1-24.35,12l-2.26.86-.87-2.27a142.33,142.33,0,0,0-7.73-16.91c-12.63-23.26-37.42-46.76-64.35-46.76a46.54,46.54,0,0,0-7.39.6c-2.72.49-26.74,5.31-35.43,26.95-4.54,11.26-3.89,23.79,1.81,35.32A57.85,57.85,0,0,0,755,486.93a137.33,137.33,0,0,0,36.22,4.85,144.42,144.42,0,0,0,23.62-2l2.36-.41.44,2.36a171,171,0,0,1,2.12,42.3l-.21,2.83-2.77-.65c-15.19-3.52-33.21-7.13-51.48-7.13-24.9,0-46.67,6.81-66.59,20.81-23.16,16.25-36.12,45.88-33,75.51,2.7,25.83,17.28,46.24,40,56A66.06,66.06,0,0,0,731.85,687a61.5,61.5,0,0,0,10.86-1,83.36,83.36,0,0,0-8,17.62c-6.44,20.25-4.17,40.78,6.35,57.85,9.93,16.11,26.37,27.21,46.32,31.31a89.35,89.35,0,0,0,68.18-14c36-25.42,42.83-67.23,47.36-94.89l.54-3.19,2.91,1.39c2.39,1.15,4.75,2.36,7.08,3.61a146.34,146.34,0,0,1,22.6,15.1l1.89,1.54-1.55,1.89a135.88,135.88,0,0,0-10.8,15.13c-15.26,24.92-23,62.22-4,85.24,1.49,1.8,15.1,17.61,35.39,17.61a41.56,41.56,0,0,0,5.63-.41c12-1.73,22.55-8.57,29.63-19.27a57.57,57.57,0,0,0,7.52-45.3,138.63,138.63,0,0,0-27.42-53.23l-1.52-1.86,1.83-1.55a170.91,170.91,0,0,1,35.57-23l2.55-1.24.83,2.73c10.7,35.22,25.9,74.55,70.86,95.41a74.81,74.81,0,0,0,15.6,5.19,81.27,81.27,0,0,0,16.75,1.78,85.09,85.09,0,0,0,49.58-16.1c21-15.22,31.38-38.08,28.49-62.7a64.49,64.49,0,0,0-14-33.68c1.09.05,2.17.06,3.25.06a81.53,81.53,0,0,0,17.77-1.91c20.73-4.52,37.38-16.75,46.91-34.4C1255.81,616.14,1257.21,596.34,1250.79,577ZM1104.58,466.35a115.29,115.29,0,0,1,25.7-38.84,34.91,34.91,0,0,1,23.4-9.49c.58,0,1.15,0,1.71.05,6.21.37,11.11,2.78,14.54,7.16,5.72,7.24,3.35,17.53,2.29,21v.09l-.16.4c-5.87,15.71-30.17,23.93-51.14,23.93-.74,0-1.48,0-2.2,0a118.78,118.78,0,0,1-12.22-1l-3.1-.4Zm-296.87.88a118.15,118.15,0,0,1-16.51,1.17,114.36,114.36,0,0,1-30-4,34.63,34.63,0,0,1-20.69-17c-2.83-5.63-3.19-10.93-1.1-16.22C743.26,421.53,756,418.6,757,418.6h0a21.85,21.85,0,0,1,3.57-.31c16.25,0,34.67,17.79,43.75,34.54a120.26,120.26,0,0,1,5.26,11.07l1.2,2.9Zm264.84,18.16,2,.68-.35,2a169.49,169.49,0,0,0-2.49,33.87c.16,5.64.58,11.37,1.28,17l.24,2-6.29,2.14a130.65,130.65,0,0,1-39.78,6.79,76.07,76.07,0,0,1-24.77-3.75c-9.07-3.14-15.37-9-18.25-17-3.18-8.81-1.7-19.31,4.06-28.8,8.7-14.36,20.73-27.71,32.42-40l1.45-1.52,1.72,1.21A195.27,195.27,0,0,0,1072.55,485.39ZM967,319.59c1.48-12.68,7.07-22.46,17.08-29.93a41.09,41.09,0,0,1,25-8.52,50.32,50.32,0,0,1,20,4.46c19.26,8.59,33.37,27.53,35.1,47.13,3.59,40-19.08,67.76-42.6,92.73l-1.63,1.74-1.78-1.63a198.45,198.45,0,0,1-17.32-18.19C982.2,385,963.65,348,967,319.59Zm-135.23,29.6c-1.55-16.85,4.66-35.39,16.2-48.39,6.45-7.33,17.48-16.14,33.44-16.64h1.28c12.66,0,24.75,5.61,34,15.8,11.53,12.64,17.45,30.78,15.43,47.34C929,372.81,913.34,401.12,889.22,425l-1.56,1.52L886,425.1C860.87,404.68,834.91,383.56,831.75,349.19Zm10,133.52a169.9,169.9,0,0,0,30.61-14.8c4.84-3,9.57-6.19,14.1-9.6l1.55-1.18s3.83,3.31,5,4.36c18.78,16.84,31.5,36.66,34.91,54.4,1.8,9.4-.14,17.81-5.61,24.31-5.85,6.92-15.31,10.9-26,10.9l-1,0C878.64,550.73,861,547,844.49,543l-2-.51.19-2.08a194.66,194.66,0,0,0-2.46-55l-.39-2ZM749.41,659.78a44.43,44.43,0,0,1-17.53,3.82A42.92,42.92,0,0,1,715,660c-20.21-8.67-25-26.87-26-37-2.18-21,7.16-42.67,23.27-54,16-11.22,33-16.44,53.5-16.44,16.28,0,32.74,3.35,48.08,7l2.33.55-.52,2.34a187.39,187.39,0,0,1-7.09,24.13C798.46,613.86,775.7,648.43,749.41,659.78Zm131.33,15c-5.14,32-10.46,65-38.62,84.93-10.3,7.26-23.92,11.42-37.37,11.42a63,63,0,0,1-12.67-1.26c-9.58-2-22.75-7.14-31.11-20.67-6.89-11.22-8.31-24.88-4-38.48,5.21-16.33,18-30.51,33.29-37,12.21-5.21,27.33-8,43.69-8a172.65,172.65,0,0,1,45,6.3l2.1.57Zm96.4,88.41a34.64,34.64,0,0,1-4.38,26.43c-3.46,5.24-8,8.28-13.47,9a16.19,16.19,0,0,1-2.18.15c-9,0-16.11-7.49-17.55-9.09-11-13.4-5.15-40,6-58.14a113.85,113.85,0,0,1,7-10.07l1.91-2.48,1.93,2.46A115.54,115.54,0,0,1,977.14,763.23Zm25.14-108.57a195.47,195.47,0,0,0-46.39,29.62l-1.58,1.36-1.59-1.35a167.62,167.62,0,0,0-28.08-19.07c-4.93-2.69-10.12-5.18-15.39-7.41l-1.81-.78.37-1.92c.31-1.55.61-3.1.94-4.59,5.19-24.67,16-45.6,29.62-57.4,5.83-5.06,12.48-7.74,19.2-7.74a26.14,26.14,0,0,1,4.66.42c9.23,1.66,17.59,8.18,22.93,17.9,8.05,14.68,13.61,31.77,18.43,48.06l.58,2Zm23.78-9.3-.69-2.34c-4.92-16.54-10.71-34.12-19.73-50.58-8.74-15.92-23.07-26.74-39.29-29.65a49.34,49.34,0,0,0-8.81-.79c-12.37,0-24.28,4.64-34.47,13.45-17.44,15.1-31,40.71-37.22,70.31L885,649.5l-2.43-.65a192,192,0,0,0-48.66-6.58,145.87,145.87,0,0,0-32.18,3.41,190.58,190.58,0,0,0,28.67-51.06,223.66,223.66,0,0,0,7.85-26.54l.55-2.4,2.38.57c16.83,4,35,7.79,53.66,8.21l1.43,0c17.59,0,33.59-7,43.89-19.23,10-11.88,13.81-27.43,10.66-43.8-4.35-22.63-19.74-47.19-42.15-67.27-.26-.23-.52-.45-1.05-1l-1.89-1.69,1.77-1.81c21.75-22,37-46.81,44.05-71.44a190.48,190.48,0,0,0,31.3,54.06,211,211,0,0,0,19.08,20l1.81,1.69-1.7,1.77c-11.25,11.89-24.09,26.21-33.92,42.36-9.41,15.56-11.63,33.36-6.06,48.83,5.28,14.65,16.88,25.73,32.61,31.19a99.15,99.15,0,0,0,32.4,5,154,154,0,0,0,47.1-7.89c.37-.12.72-.23,1.1-.38l2.5-1,.71,2.61c7.76,28.39,20.73,53,37.35,71.22a186.06,186.06,0,0,0-29.13-2.25,188.6,188.6,0,0,0-31.42,2.6,220.9,220.9,0,0,0-26.9,6.52Zm124.58,101.15a61.75,61.75,0,0,1-35.94,11.59,54,54,0,0,1-22.44-4.74c-36.41-16.91-49.11-50.39-59-83.23l-.69-2.3,2.3-.72a186.27,186.27,0,0,1,24.41-5.92,166.34,166.34,0,0,1,27.86-2.3c27,0,50.75,6.15,65.11,16.85,10.23,7.65,15.92,17.37,17.36,29.73C1172.22,727.29,1158.85,740.54,1150.64,746.51Zm75.62-124.8c-6.26,11.59-17.4,19.64-31.33,22.68a59.37,59.37,0,0,1-12.63,1.34c-13.08,0-26.23-4.25-36.06-11.67-20.55-15.47-37.23-43.17-45.79-76l-.55-2.1,2-.78c19.23-7.32,41-15.62,62.14-15.62a72,72,0,0,1,30.7,6.61c15.34,7.07,28.31,21.72,33.84,38.24C1231.69,593.74,1233.79,607.75,1226.26,621.71Z" transform="translate(-665.24 -257.74)"/></svg>